<svg xmlns="http://www.w3.org/2000/svg" viewBox="454 651 52.25 52.25"><g transform="translate(454 651)"><path d="M48.746,13A25.687,25.687,0,0,0,39.253,3.5,25.228,25.228,0,0,0,26.124,0,25.574,25.574,0,0,0,12.995,3.5,26.721,26.721,0,0,0,3.5,13,25.577,25.577,0,0,0,0,26.125a25.577,25.577,0,0,0,3.5,13.13,26.193,26.193,0,0,0,9.493,9.494,25.228,25.228,0,0,0,13.129,3.5,25.574,25.574,0,0,0,13.129-3.5,24.734,24.734,0,0,0,9.493-9.494,25.231,25.231,0,0,0,3.5-13.13A24.94,24.94,0,0,0,48.746,13ZM26.124,3.838A21.531,21.531,0,0,1,40.869,9.427l-.4.606a17.008,17.008,0,0,1-1.279,1.347,20.933,20.933,0,0,1-2.222,1.953,32.7,32.7,0,0,1-3.3,2.087,29.944,29.944,0,0,1-4.444,2.087,100.376,100.376,0,0,0-8.349-13A20.817,20.817,0,0,1,26.124,3.838ZM8.618,12.255a21.956,21.956,0,0,1,7.945-6.329,113.115,113.115,0,0,1,8.349,12.928,80.547,80.547,0,0,1-20.6,2.693A21.8,21.8,0,0,1,8.618,12.255ZM5.319,34.2a21.782,21.782,0,0,1-1.481-8.08,2.3,2.3,0,0,1,.067-.741A80.387,80.387,0,0,0,26.8,22.22c.741,1.414,1.347,2.693,1.818,3.771-.067.067-.269.067-.471.135a4.29,4.29,0,0,0-.471.135l-1.279.471a28.615,28.615,0,0,0-3.366,1.616,42.414,42.414,0,0,0-4.444,2.761,33.032,33.032,0,0,0-4.848,4.242,25.555,25.555,0,0,0-4.174,5.656A21.468,21.468,0,0,1,5.319,34.2Zm20.8,14.274a21.681,21.681,0,0,1-14.206-5.117l.539.4a18.467,18.467,0,0,1,3.5-5.05A31.789,31.789,0,0,1,20.4,34.811a38.452,38.452,0,0,1,4.646-2.761c1.683-.875,2.828-1.414,3.434-1.683a14.225,14.225,0,0,1,1.481-.539l.067-.067H30.1a92.462,92.462,0,0,1,4.78,16.968A23.073,23.073,0,0,1,26.124,48.479Zm18.785-10.3a21.471,21.471,0,0,1-6.329,6.464A91.125,91.125,0,0,0,34.2,28.684a31.931,31.931,0,0,1,13.937,1.01A20.994,20.994,0,0,1,44.908,38.178ZM48.14,25.856c-.2-.067-.539-.067-.875-.135s-.741-.135-1.212-.2-1.01-.135-1.616-.2-1.212-.135-1.953-.2c-.673-.067-1.414-.135-2.155-.135-.808-.067-1.616-.067-2.357-.067-.808,0-1.616,0-2.491.067s-1.751.135-2.559.269l-.269-.539a1.55,1.55,0,0,1-.2-.606c-.4-.943-.943-2.02-1.481-3.232a27.381,27.381,0,0,0,4.444-2.222,30.8,30.8,0,0,0,3.434-2.222,24.577,24.577,0,0,0,2.424-2.087c.741-.741,1.279-1.212,1.481-1.481s.471-.539.673-.808l.067-.067a21.872,21.872,0,0,1,5.05,13.938Z"/></g></svg>