<svg xmlns="http://www.w3.org/2000/svg" viewBox="168.7 650.7 52.254 52.254"><g transform="translate(168.7 650.7)"><path d="M26.127,0C12.13,0,0,12.13,0,26.127S12.13,52.254,26.127,52.254s26.127-12.13,26.127-26.127S40.123,0,26.127,0Zm11.2,20.528h0c0,8.4-5.6,17.729-16.8,17.729a15.764,15.764,0,0,1-9.331-2.8h1.866a10.6,10.6,0,0,0,7.465-2.8,6.3,6.3,0,0,1-5.6-3.732h2.8a7.017,7.017,0,0,1-4.666-6.532h0c.933,0,1.866.933,2.8.933a5.131,5.131,0,0,1-2.8-4.666,3.428,3.428,0,0,1,.933-2.8c2.8,2.8,6.532,5.6,12.13,5.6v-.933a5.378,5.378,0,0,1,5.6-5.6A7.127,7.127,0,0,1,36.391,16.8a7.074,7.074,0,0,0,3.732-1.866c0,1.866-1.866,2.8-2.8,3.732.933,0,2.8-.933,3.732-.933A12.881,12.881,0,0,1,37.324,20.528Z"/></g></svg>